<svg width="54" height="54" viewBox="0 0 54 54" fill="none" xmlns="http://www.w3.org/2000/svg">
<g id="telegram icon">
<path id="Vector" fill-rule="evenodd" clip-rule="evenodd" d="M49 27C49 39.4263 38.9263 49.5 26.5 49.5C14.0736 49.5 4 39.4263 4 27C4 14.5736 14.0736 4.5 26.5 4.5C38.9263 4.5 49 14.5736 49 27ZM27.3062 21.1105C25.1178 22.0207 20.744 23.9047 14.1848 26.7624C13.1197 27.1861 12.5617 27.6005 12.5109 28.0055C12.4251 28.6904 13.2826 28.96 14.4502 29.3272C14.6091 29.3771 14.7737 29.4289 14.9424 29.4835C16.0912 29.857 17.6365 30.294 18.4399 30.3113C19.1686 30.3271 19.982 30.0267 20.8799 29.41C27.0085 25.2731 30.172 23.1822 30.3704 23.137C30.5106 23.1052 30.7048 23.0652 30.8364 23.1822C30.968 23.2992 30.955 23.5206 30.941 23.58C30.8562 23.9422 27.4902 27.0715 25.7483 28.6909C25.2053 29.1958 24.8201 29.5537 24.7414 29.6356C24.565 29.8188 24.3852 29.992 24.2124 30.1585C23.1452 31.1875 22.3447 31.959 24.2567 33.219C25.1756 33.8245 25.9107 34.3251 26.6442 34.8246C27.4452 35.3702 28.2442 35.9143 29.2781 36.592C29.5413 36.7645 29.7929 36.9439 30.0379 37.1185C30.9701 37.7831 31.8075 38.3803 32.8423 38.2849C33.4435 38.2297 34.0645 37.6643 34.3799 35.9782C35.1254 31.9934 36.5906 23.3595 36.9292 19.8018C36.9589 19.4901 36.9215 19.0912 36.8916 18.9161C36.8615 18.741 36.7989 18.4914 36.5712 18.3067C36.3017 18.088 35.8856 18.0419 35.6993 18.045C34.8531 18.0601 33.5546 18.5115 27.3062 21.1105Z" fill="#53565A"/>
</g>
</svg>
