<svg width="54" height="54" viewBox="0 0 54 54" fill="none" xmlns="http://www.w3.org/2000/svg">
<g id="vk icon">
<mask id="mask0_503_4036" style="mask-type:alpha" maskUnits="userSpaceOnUse" x="4" y="5" width="45" height="44">
<circle id="Ellipse 19" cx="26.5" cy="27" r="22" fill="#D9D9D9"/>
</mask>
<g mask="url(#mask0_503_4036)">
<path id="Vector" fill-rule="evenodd" clip-rule="evenodd" d="M7.15 7.65C4 10.83 4 15.915 4 26.1V27.9C4 38.07 4 43.155 7.15 46.35C10.33 49.5 15.415 49.5 25.6 49.5H27.4C37.57 49.5 42.655 49.5 45.85 46.35C49 43.1701 49 38.0851 49 27.9V26.1C49 15.93 49 10.845 45.85 7.65C42.6701 4.5 37.5851 4.5 27.4 4.5H25.6C15.43 4.5 10.345 4.5 7.15 7.65ZM11.59 18.195C11.83 29.8951 17.68 36.9151 27.94 36.9151H28.5401V30.2249C32.305 30.6 35.1551 33.3601 36.2949 36.9151H41.62C41.0739 34.895 40.1055 33.0136 38.7791 31.3949C37.4528 29.7765 35.7983 28.4575 33.925 27.5249C35.6037 26.5027 37.0536 25.1451 38.184 23.5372C39.3144 21.9294 40.1012 20.1057 40.495 18.18H35.6649C34.6151 21.9 31.495 25.2749 28.5401 25.5899V18.195H23.6949V31.1551C20.695 30.4049 16.915 26.775 16.75 18.195H11.59Z" fill="#53565A"/>
</g>
</g>
</svg>
