<svg width="26" height="24" viewBox="0 0 26 24" fill="none" xmlns="http://www.w3.org/2000/svg">
<g id="Property 1=Bag, Size=24">
<path id="Vector" d="M22.6 7H3.4C2.07452 7 1 8.02335 1 9.28571V20.7143C1 21.9767 2.07452 23 3.4 23H22.6C23.9255 23 25 21.9767 25 20.7143V9.28571C25 8.02335 23.9255 7 22.6 7Z" stroke="black" stroke-width="2" stroke-linecap="round" stroke-linejoin="round"/>
<path id="Vector_2" d="M18 23V4.33333C18 3.71449 17.7366 3.121 17.2678 2.68342C16.7989 2.24583 16.163 2 15.5 2H10.5C9.83696 2 9.20107 2.24583 8.73223 2.68342C8.26339 3.121 8 3.71449 8 4.33333V23" stroke="black" stroke-width="2" stroke-linecap="round" stroke-linejoin="round"/>
</g>
</svg>
