<svg width="25" height="24" viewBox="0 0 25 24" fill="none" xmlns="http://www.w3.org/2000/svg">
<g id="Property 1=Heart, Size=24">
<path id="Vector" d="M21.5087 3.76815C20.9657 3.20759 20.321 2.76292 19.6114 2.45954C18.9018 2.15615 18.1413 2 17.3732 2C16.6051 2 15.8446 2.15615 15.135 2.45954C14.4254 2.76292 13.7807 3.20759 13.2377 3.76815L12.1108 4.93095L10.9839 3.76815C9.88714 2.6364 8.39956 2.00059 6.84845 2.00059C5.29735 2.00059 3.80977 2.6364 2.71297 3.76815C1.61617 4.89989 1 6.43487 1 8.03541C1 9.63594 1.61617 11.1709 2.71297 12.3027L3.83986 13.4655L12.1108 22L20.3818 13.4655L21.5087 12.3027C22.0519 11.7424 22.4829 11.0771 22.7769 10.3449C23.0709 9.61276 23.2222 8.82796 23.2222 8.03541C23.2222 7.24285 23.0709 6.45806 22.7769 5.72587C22.4829 4.99368 22.0519 4.32844 21.5087 3.76815Z" stroke="black" stroke-width="2" stroke-linecap="round" stroke-linejoin="round"/>
</g>
</svg>
