<svg width="454" height="67" viewBox="0 0 454 67" fill="none" xmlns="http://www.w3.org/2000/svg">
<path fill-rule="evenodd" clip-rule="evenodd" d="M365.939 66.4979C362.263 66.4979 358.709 65.8821 355.278 64.6507C351.908 63.3577 348.875 61.3874 346.179 58.7398C343.483 56.0922 341.338 52.7057 339.745 48.5804C338.823 46.0966 338.178 43.3114 337.811 40.2249H347.064C347.503 43.3066 348.28 45.9686 349.396 48.211C351.234 51.9053 353.623 54.5837 356.565 56.2461C359.506 57.9086 362.631 58.7398 365.939 58.7398C369.309 58.7398 372.434 57.9086 375.314 56.2461C378.255 54.5837 380.645 51.9053 382.483 48.211C383.599 45.9686 384.376 43.3066 384.815 40.2249H394.053C393.671 43.3114 393.001 46.0966 392.042 48.5804C390.51 52.7057 388.396 56.0922 385.7 58.7398C383.004 61.3874 379.94 63.3577 376.509 64.6507C373.139 65.8821 369.616 66.4979 365.939 66.4979ZM393.935 24.768C393.54 22.1333 392.909 19.7267 392.042 17.5481C390.51 13.546 388.396 10.2519 385.7 7.66583C383.004 5.01824 379.94 3.07872 376.509 1.84728C373.139 0.615841 369.616 0.00012207 365.939 0.00012207C362.263 0.00012207 358.709 0.615841 355.278 1.84728C351.908 3.07872 348.875 5.01824 346.179 7.66583C343.483 10.2519 341.338 13.546 339.745 17.5481C338.911 19.7267 338.304 22.1333 337.924 24.768H347.215C347.671 22.2288 348.398 20.0069 349.396 18.1023C351.234 14.5311 353.623 11.9143 356.565 10.2519C359.506 8.58941 362.631 7.75819 365.939 7.75819C369.309 7.75819 372.434 8.58941 375.314 10.2519C378.255 11.9143 380.645 14.5311 382.483 18.1023C383.481 20.0069 384.208 22.2288 384.664 24.768H393.935ZM405.287 40.2249V65.5743H413.927V40.2249H405.287ZM428.859 40.2249L443.798 65.5743H454L438.212 40.2249H428.859ZM451.662 24.768C451.995 23.3527 452.161 21.8697 452.161 20.3189C452.161 16.6246 451.242 13.3305 449.404 10.4366C447.566 7.48112 444.839 5.17217 441.224 3.50972C437.67 1.78571 433.197 0.923701 427.805 0.923701H405.287V24.768H413.927V8.49706H426.886C432.83 8.49706 437.088 9.60535 439.662 11.8219C442.235 13.977 443.522 16.8093 443.522 20.3189C443.522 21.9398 443.247 23.4229 442.698 24.768H451.662ZM308.35 24.768V8.49706H330.684V0.923701H277.376V8.49706H299.71V24.768H308.35ZM260.273 24.768L251.68 2.21538H243.379L234.786 24.768H243.075L247.353 12.8649L251.63 24.768H260.273ZM257.185 40.2249H266.162L275.349 64.3377H266.341L260.424 48.8959H234.282L228.365 64.3377H219.71L228.897 40.2249H237.521L237.02 41.6187H257.686L257.185 40.2249ZM213.952 24.768V2.21538H205.651V24.768H213.952ZM205.622 40.2249H213.927C213.762 45.5384 212.769 49.9966 210.95 53.5994C208.948 57.5043 206.122 60.4329 202.471 62.3853C198.88 64.2786 194.611 65.2252 189.665 65.2252C184.779 65.2252 180.51 64.2786 176.86 62.3853C173.209 60.4329 170.383 57.5043 168.381 53.5994C166.562 49.9966 165.569 45.5384 165.404 40.2249H173.709C173.922 46.135 175.325 50.4748 177.919 53.2445C180.746 56.2618 184.661 57.7705 189.665 57.7705C194.67 57.7705 198.585 56.2618 201.411 53.2445C204.006 50.4748 205.409 46.135 205.622 40.2249ZM173.68 24.768V2.21538H165.379V24.768H173.68ZM152.903 24.768C152.521 22.3764 151.933 20.1837 151.139 18.1897C149.667 14.344 147.636 11.1788 145.045 8.69386C142.455 6.1498 139.511 4.28613 136.214 3.10285C132.976 1.91956 129.59 1.32792 126.058 1.32792C122.525 1.32792 119.11 1.91956 115.813 3.10285C112.575 4.28613 109.66 6.1498 107.07 8.69386C104.479 11.1788 102.418 14.344 100.888 18.1897C100.124 20.1837 99.559 22.3764 99.1916 24.768H108.132C108.573 22.4772 109.249 20.4619 110.161 18.7222C111.927 15.2907 114.223 12.7762 117.049 11.1788C119.875 9.58132 122.878 8.78261 126.058 8.78261C129.296 8.78261 132.298 9.58132 135.066 11.1788C137.892 12.7762 140.188 15.2907 141.954 18.7222C142.866 20.4619 143.542 22.4772 143.983 24.768H152.903ZM107.956 40.2249C108.383 43.0823 109.118 45.5585 110.161 47.6534C111.927 51.2033 114.223 53.7769 117.049 55.3744C119.875 56.9718 122.878 57.7705 126.058 57.7705C127.765 57.7705 129.414 57.5634 131.003 57.1493C132.652 56.676 134.183 55.9956 135.596 55.1081L126.058 45.4348L131.092 40.3763L140.63 50.0496C141.866 48.1563 142.837 45.8785 143.544 43.2161C143.789 42.2724 143.992 41.2753 144.152 40.2249H153.043C152.736 42.6038 152.249 44.7842 151.581 46.766C150.344 50.375 148.696 53.4515 146.635 55.9956L152.552 61.9416L147.518 67.0001L141.336 60.8766C139.099 62.3557 136.685 63.4503 134.094 64.1602C131.504 64.8702 128.825 65.2252 126.058 65.2252C122.525 65.2252 119.11 64.6336 115.813 63.4503C112.575 62.2078 109.66 60.3146 107.07 57.7705C104.479 55.2265 102.418 51.9724 100.888 48.0084C100.026 45.6877 99.4163 43.0932 99.0591 40.2249H107.956ZM299.71 40.2249H308.35V65.5743H299.71V40.2249Z" fill="black"/>
<path d="M41.8108 0H0V24.7312H7.81722V7.85533H41.8108V0Z" fill="black"/>
<path d="M41.8108 55.827H7.81722V40.188H0V63.6824H41.8108V55.827Z" fill="black"/>
<path d="M51.6553 63.6824V55.827H85.7047V40.188H93.5219V63.6824H51.6553Z" fill="black"/>
<path d="M51.6553 7.85533V0H93.5219V24.7312H85.7047V7.85533H51.6553Z" fill="black"/>
<ellipse cx="14.1516" cy="14.2203" rx="3.69165" ry="3.70965" fill="#FF0000"/>
</svg>
