<svg width="1156" height="213" viewBox="0 0 1156 213" fill="none" xmlns="http://www.w3.org/2000/svg">
<path opacity="0.1" d="M0.588025 0.676818H55.9496L114.421 143.331H116.91L175.381 0.676818H230.743V213H187.2V74.8033H185.438L130.491 211.963H100.84L45.8933 74.285H44.1309V213H0.588025V0.676818ZM381.587 213V0.676818H524.656V37.6882H426.477V88.2809H517.295V125.292H426.477V175.989H525.071V213H381.587ZM674.204 213V0.676818H757.972C774.076 0.676818 787.796 3.75246 799.131 9.90376C810.465 15.9859 819.105 24.4526 825.049 35.3037C831.062 46.0858 834.068 58.5266 834.068 72.6262C834.068 86.7258 831.027 99.1666 824.945 109.949C818.863 120.731 810.051 129.128 798.508 135.141C787.035 141.154 773.143 144.161 756.832 144.161H703.44V108.186H749.575C758.214 108.186 765.333 106.7 770.931 103.728C776.599 100.687 780.815 96.5056 783.58 91.1837C786.413 85.7927 787.83 79.6069 787.83 72.6262C787.83 65.5764 786.413 59.4251 783.58 54.1723C780.815 48.8504 776.599 44.738 770.931 41.8352C765.264 38.8632 758.076 37.3772 749.367 37.3772H719.095V213H674.204ZM985.69 0.676818H1029.34V69.1013C1029.34 77.2569 1030.75 83.8229 1033.59 88.7992C1036.42 93.7064 1040.81 97.2659 1046.75 99.4776C1052.77 101.62 1060.47 102.691 1069.87 102.691C1073.19 102.691 1077.1 102.588 1081.59 102.38C1086.08 102.104 1090.71 101.724 1095.48 101.24C1100.32 100.756 1104.88 100.169 1109.16 99.4776C1113.45 98.7864 1117.01 97.9916 1119.84 97.0931V132.549C1116.94 133.517 1113.31 134.381 1108.96 135.141C1104.67 135.832 1100.15 136.454 1095.38 137.007C1090.61 137.491 1085.98 137.871 1081.48 138.148C1076.99 138.424 1073.12 138.562 1069.87 138.562C1052.8 138.562 1037.94 136.143 1025.29 131.305C1012.64 126.398 1002.87 118.83 995.953 108.601C989.111 98.3717 985.69 85.2052 985.69 69.1013V0.676818ZM1112.07 0.676818H1155.92V213H1112.07V0.676818Z" fill="#035629"/>
</svg>
