<svg width="94" height="64" viewBox="0 0 94 64" fill="none" xmlns="http://www.w3.org/2000/svg">
<g clip-path="url(#clip0_804_10)">
<path d="M41.8108 0H0V24.7312H7.81722V7.85533H41.8108V0Z" fill="white"/>
<path d="M41.8108 55.8275H7.81722V40.1885H0V63.6829H41.8108V55.8275Z" fill="white"/>
<path d="M51.6562 63.6829V55.8275H85.7056V40.1885H93.5228V63.6829H51.6562Z" fill="white"/>
<path d="M51.6562 7.85533V0H93.5228V24.7312H85.7056V7.85533H51.6562Z" fill="white"/>
<path d="M13.1526 16.93C15.1914 16.93 16.8442 15.2692 16.8442 13.2204C16.8442 11.1716 15.1914 9.51074 13.1526 9.51074C11.1137 9.51074 9.46094 11.1716 9.46094 13.2204C9.46094 15.2692 11.1137 16.93 13.1526 16.93Z" fill="#FF0000"/>
</g>
<defs>
<clipPath id="clip0_804_10">
<rect width="94" height="64" fill="white"/>
</clipPath>
</defs>
</svg>
